<svg xmlns="http://www.w3.org/2000/svg" width="800" height="400" viewBox="0 0 800 400">
  <defs>
    <linearGradient id="screenGradient" x1="0%" y1="0%" x2="100%" y2="100%">
      <stop offset="0%" stop-color="#0a0a1a" />
      <stop offset="100%" stop-color="#1a1a3a" />
    </linearGradient>
    <linearGradient id="accentGradient" x1="0%" y1="0%" x2="100%" y2="100%">
      <stop offset="0%" stop-color="#6e42ff" />
      <stop offset="100%" stop-color="#00d2ff" />
    </linearGradient>
  </defs>
  
  <!-- Screen 1 -->
  <g transform="translate(50, 50)">
    <rect x="0" y="0" width="200" height="350" rx="20" ry="20" fill="url(#screenGradient)" stroke="#444" stroke-width="2" />
    <rect x="20" y="40" width="160" height="30" rx="5" ry="5" fill="url(#accentGradient)" opacity="0.8" />
    <rect x="20" y="90" width="160" height="60" rx="5" ry="5" fill="#ffffff" opacity="0.2" />
    <rect x="20" y="170" width="160" height="20" rx="5" ry="5" fill="#ffffff" opacity="0.7" />
    <rect x="20" y="200" width="160" height="20" rx="5" ry="5" fill="#ffffff" opacity="0.7" />
    <rect x="20" y="230" width="160" height="20" rx="5" ry="5" fill="#ffffff" opacity="0.7" />
    <circle cx="100" cy="300" r="20" fill="#ff3a8c" opacity="0.7" />
  </g>
  
  <!-- Screen 2 -->
  <g transform="translate(300, 50)">
    <rect x="0" y="0" width="200" height="350" rx="20" ry="20" fill="url(#screenGradient)" stroke="#444" stroke-width="2" />
    <rect x="20" y="40" width="160" height="30" rx="5" ry="5" fill="url(#accentGradient)" opacity="0.8" />
    <rect x="20" y="90" width="70" height="70" rx="5" ry="5" fill="#ffffff" opacity="0.2" />
    <rect x="110" y="90" width="70" height="70" rx="5" ry="5" fill="#ffffff" opacity="0.2" />
    <rect x="20" y="180" width="70" height="70" rx="5" ry="5" fill="#ffffff" opacity="0.2" />
    <rect x="110" y="180" width="70" height="70" rx="5" ry="5" fill="#ffffff" opacity="0.2" />
    <rect x="20" y="270" width="160" height="40" rx="5" ry="5" fill="#ff3a8c" opacity="0.7" />
  </g>
  
  <!-- Screen 3 -->
  <g transform="translate(550, 50)">
    <rect x="0" y="0" width="200" height="350" rx="20" ry="20" fill="url(#screenGradient)" stroke="#444" stroke-width="2" />
    <circle cx="100" cy="80" r="40" fill="url(#accentGradient)" opacity="0.8" />
    <rect x="40" y="140" width="120" height="15" rx="5" ry="5" fill="#ffffff" opacity="0.7" />
    <rect x="60" y="165" width="80" height="15" rx="5" ry="5" fill="#ffffff" opacity="0.5" />
    <rect x="30" y="200" width="140" height="1" rx="0" ry="0" fill="#444" />
    <rect x="40" y="220" width="120" height="15" rx="5" ry="5" fill="#ffffff" opacity="0.7" />
    <rect x="40" y="245" width="120" height="15" rx="5" ry="5" fill="#ffffff" opacity="0.7" />
    <rect x="40" y="270" width="120" height="15" rx="5" ry="5" fill="#ffffff" opacity="0.7" />
    <rect x="40" y="295" width="120" height="15" rx="5" ry="5" fill="#ffffff" opacity="0.7" />
  </g>
</svg>
